<svg viewBox="0 0 500 500" xmlns="http://www.w3.org/2000/svg" fill-rule="evenodd" clip-rule="evenodd" stroke-linejoin="round" stroke-miterlimit="1.414"><path d="M77.323 488.24c-9.777.783-19.2 1.627-28.235 2.532a36.586 36.586 0 0 1-.649-1.088l-32.722-56.806c2.775-3.74 12.767-5.152 27.635-4.888l33.97 60.25zm17.37-1.294l5.145-2.896-30.693-54.47c80.278 7.493 225.391 38.721 263.415 46.145 1.132.22.82 3.173-.523 7.554-26.263-.872-53.825-1.335-82.234-1.335-56.19 0-109.053 1.814-155.11 5.002z" fill="#004675"/><path d="M484.281 494.638c-58.912-7.818-142.079-12.694-234.195-12.694-57.03 0-110.63 1.866-157.17 5.148l-45.873-79.637c21.294-28.734 409.81 49.719 409.81 49.719l27.428 37.464z" fill="#00528a"/><path d="M297.213 51.367C288.91 236.35 347.043 360.59 448.42 445.32c-57.549-10.904-112.18-21.764-161.79-31.099a1011.712 1011.712 0 0 1-6.07-30.121c-4.34-23.416-7.793-47.001-10.154-70.7-3.963-39.81-4.786-79.955-1.679-119.853a604.802 604.802 0 0 1 16.555-101.04 621.316 621.316 0 0 1 11.931-41.14zm-24.089 360.33c-75.747-14.076-138.85-24.14-181.335-24.64 23.52-171.409 93.694-298.766 208.743-381.693a687.872 687.872 0 0 0-9.022 23.61c-6.775 18.795-12.706 37.894-17.704 57.24a615.921 615.921 0 0 0-11.205 52.847 619.007 619.007 0 0 0-6.51 53.5c-3.258 41.797-2.28 83.849 2.052 125.532 2.377 22.896 5.756 45.683 9.951 68.315 1.566 8.45 3.25 16.88 5.03 25.29z" fill="#007eb2"/></svg>